<?xml version="1.0" standalone="no"?><!DOCTYPE svg PUBLIC "-//W3C//DTD SVG 1.1//EN" "http://www.w3.org/Graphics/SVG/1.1/DTD/svg11.dtd"><svg t="1610604623845" class="icon" viewBox="0 0 1024 1024" version="1.1" xmlns="http://www.w3.org/2000/svg" p-id="542" width="128" height="128" xmlns:xlink="http://www.w3.org/1999/xlink"><defs><style type="text/css"></style></defs><path d="M780.6 812.4c0 29.6-24.2 53.9-53.9 53.9-29.6 0-53.9-24.2-53.9-53.9v-43.2c0-29.6-24.2-53.9-53.9-53.9-29.6 0-53.9 24.2-53.9 53.9v43.2c0 29.6-24.2 53.9-53.9 53.9-29.6 0-53.9-24.2-53.9-53.9v-43.2c0-29.6-24.2-53.9-53.9-53.9-29.6 0-53.9 24.2-53.9 53.9v43.2c0 29.6-24.2 53.9-53.9 53.9-29.6 0-53.9-24.2-53.9-53.9V426.6c0-148.1 121.2-269.3 269.3-269.3 148.1 0 269.3 121.2 269.3 269.3v382.5" fill="#D6B0F7" p-id="543"></path><path d="M726.8 875c-34.5 0-62.6-28.1-62.6-62.6v-43.2c0-24.9-20.2-45.1-45.1-45.1-24.9 0-45.1 20.2-45.1 45.1v43.2c0 34.5-28.1 62.6-62.6 62.6s-62.6-28.1-62.6-62.6v-43.2c0-24.9-20.2-45.1-45.1-45.1s-45.1 20.2-45.1 45.1v43.2c0 34.5-28.1 62.6-62.6 62.6s-62.6-28.1-62.6-62.6V426.6c0-74 29-143.7 81.7-196.4 52.7-52.7 122.4-81.7 196.4-81.7s143.7 29 196.4 81.7 81.7 122.4 81.7 196.4v382.5c0 0.6-0.1 1.1-0.2 1.6 0.1 0.5 0.2 1.1 0.2 1.6-0.2 34.6-28.3 62.7-62.8 62.7zM619 706.5c34.5 0 62.6 28.1 62.6 62.6v43.2c0 24.9 20.2 45.1 45.1 45.1 24.9 0 45.1-20.2 45.1-45.1 0-0.6 0.1-1.1 0.2-1.6-0.1-0.5-0.2-1.1-0.2-1.6V426.6c0-69.3-27.2-134.6-76.5-184-49.4-49.4-114.7-76.5-184-76.5s-134.6 27.2-184 76.5c-49.4 49.4-76.5 114.7-76.5 184v385.8c0 24.9 20.2 45.1 45.1 45.1s45.1-20.2 45.1-45.1v-43.2c0-34.5 28.1-62.6 62.6-62.6s62.6 28.1 62.6 62.6v43.2c0 24.9 20.2 45.1 45.1 45.1 24.9 0 45.1-20.2 45.1-45.1v-43.2c0-34.6 28.1-62.7 62.6-62.7z" fill="#050405" p-id="544"></path><path d="M416.6 411.3m-45.9 0a45.9 45.9 0 1 0 91.8 0 45.9 45.9 0 1 0-91.8 0Z" fill="#D6B0F7" p-id="545"></path><path d="M416.6 466c-30.1 0-54.6-24.5-54.6-54.6s24.5-54.6 54.6-54.6 54.6 24.5 54.6 54.6-24.5 54.6-54.6 54.6z m0-91.8c-20.5 0-37.2 16.7-37.2 37.2s16.7 37.2 37.2 37.2 37.2-16.7 37.2-37.2-16.7-37.2-37.2-37.2z" fill="#050405" p-id="546"></path><path d="M606.1 411.3m-45.9 0a45.9 45.9 0 1 0 91.8 0 45.9 45.9 0 1 0-91.8 0Z" fill="#D6B0F7" p-id="547"></path><path d="M606.1 466c-30.1 0-54.6-24.5-54.6-54.6s24.5-54.6 54.6-54.6 54.6 24.5 54.6 54.6-24.5 54.6-54.6 54.6z m0-91.8c-20.5 0-37.2 16.7-37.2 37.2s16.7 37.2 37.2 37.2 37.2-16.7 37.2-37.2-16.7-37.2-37.2-37.2z" fill="#050405" p-id="548"></path><path d="M299.1 406.5c-0.4 0-0.9 0-1.3-0.1-4.8-0.7-8-5.2-7.3-10 5.8-37.7 21.5-73.6 45.2-103.9 23.4-29.8 54.2-53.3 88.9-68.1 4.4-1.9 9.6 0.2 11.5 4.6 1.9 4.4-0.2 9.6-4.6 11.5C366 268.3 318.6 329.1 307.8 399c-0.8 4.5-4.5 7.5-8.7 7.5zM296.6 484.3c-4.8 0-8.7-3.9-8.7-8.7v-18.3c0-4.8 3.9-8.7 8.7-8.7s8.7 3.9 8.7 8.7v18.3c0 4.8-3.9 8.7-8.7 8.7z" fill="#050405" p-id="549"></path></svg>